<?xml version="1.0" encoding="UTF-8"?>
<svg id="Layer_2" data-name="Layer 2" xmlns="http://www.w3.org/2000/svg" viewBox="0 0 966.12 1556.45">
  <defs>
    <style>
      .cls-1 {
        fill: #4a7991;
      }
    </style>
  </defs>
  <g id="Layer_1-2" data-name="Layer 1">
    <path class="cls-1" d="M866.6,1027.83c-45.34,29.16-78.61,72.44-119.14,107.23-31.06,26.66-66.77,48.04-93.76,79.56-1.12,13.79-2.47,34.51-2.75,59.8-.28,24.97.68,36.39,1.22,59.95,1.28,56.61-2.8,56.08-1.46,95.76,2.19,64.39,3.83,74.8,1.42,94.78-4.12,34.09-64.45,41.88-84.15,16.86l-11.27-203.14c-6.56-45.7-4.76-95.19-11.01-140.6-3.13-22.71-40.65-25.21-59.44-31.56-17.6-5.95-34.94-13.35-52.59-18.91-100.63-31.67-203.93-55.38-303.84-89.41l-4.94,301.54c-2.92,2.89-16.37,15.59-36.9,15.67-28.85.1-44.79-24.81-45.73-26.33-2.08-24.52-4.93-60.34-7.71-103.72-4.04-62.96-6.05-94.44-6.57-127.64-1.67-106.65-6.34-219.74-10.85-262.03-1.26-11.76-9.81-21.73-13.28-34.37-4.8-17.48-6.84-30.62,4.66-45.7,35.37-46.38,160.73-110.8,215.88-137.27,38.81-18.62,78.59-35.18,118.93-50.08l.96-224.28,4.51-51.8c-4.19-55.4,4.92-109.86,8.56-164.7,2.74-41.33,1.04-86.6,6.71-127.57,4.32-31.2,27-16.99,46.67-14.53,132.76,16.62,259.82,35.02,390.96,61.93,39.31,8.07,82.67,16.78,120.8,28.71,10.13,3.17,35.81,10.64,40.06,20.6,1.6,3.75,3.5,21.37,3.58,26.3.43,27.87-5.28,58.94-6.38,86.77-4.09,103.88-4.96,208.23-8.67,311.86-3.35,93.41-11.65,188.97-8.6,281.65,4.4,133.73,12.08,266.8,19.4,400.51-4.1,25.47-60.08,32.93-76.81,16.37l-18.44-212.24ZM877.45,321.8c2.03-34.86,5.08-71.06-2.1-105.08-143.76-33.86-289.66-58.49-435.64-81.15l-4.24,93.02c57.07,10.73,114.51,17.7,171.51,28.92,90.89,17.89,181.14,40.24,270.47,64.29ZM861.78,458.76c-3.99-3.96-76.01-22.69-87.88-25.88-112.88-30.36-227.86-55.4-342.87-76.42l2.15,214.42c49.68.62,99.07,4.39,147.79,13.66,92.85,17.67,180.82,51.9,272.63,72.96,6.91-42.7,4.82-86,6.43-128.95.44-11.69,7.88-63.69,1.75-69.79ZM654.25,1118.79c5.61.65,9.94-3.45,14.01-6.57,40.85-31.33,79.31-68.83,119.2-101.78,25.02-20.67,48.62-42.93,76.02-60.62l.96-67.09c-71.51,53.25-139.27,112.02-214.08,160.69l3.89,75.38ZM121.12,928.2v44.4c0,1.32,2.9,5.65,4.91,6.09,106.62,33.02,211.15,72.16,318,104.36,15.46,4.66,31.63,6.81,47.16,11.35,13.59,3.98,27.84,11.83,40.7,15.66,1.63.49,2.41.48,2.78.13.88-.83.49-2.76.39-3.27-.51-2.55-.51-9.48,1.16-26.97v-28.39l-411.47-118.96-3.62-4.39Z"/>
  </g>
</svg>