<svg width="64" height="60" viewBox="0 0 64 60" fill="none" xmlns="http://www.w3.org/2000/svg">
<path d="M4 26C1.79086 26 0 27.7909 0 30C0 32.2091 1.79086 34 4 34V30V26ZM62.8284 32.8284C64.3905 31.2663 64.3905 28.7337 62.8284 27.1716L37.3726 1.71573C35.8105 0.153632 33.2778 0.153632 31.7157 1.71573C30.1536 3.27783 30.1536 5.81049 31.7157 7.37258L54.3431 30L31.7157 52.6274C30.1536 54.1895 30.1536 56.7222 31.7157 58.2843C33.2778 59.8464 35.8105 59.8464 37.3726 58.2843L62.8284 32.8284ZM4 30V34H60V30V26H4V30Z" fill="#4A5A9F"/>
</svg>
