<svg width="74" height="76" viewBox="0 0 74 76" fill="none" xmlns="http://www.w3.org/2000/svg">
<path d="M59.4819 29.5639C56.0167 29.9006 44.3925 39.5484 45.8456 35.1929C47.7768 29.4043 51.2679 18.2613 45.8716 13.6144C40.7444 9.1992 36.7078 22.8512 36.7078 26.7744C34.3537 20.3288 24.3893 5.69855 17.1605 11.2211C11.9471 15.204 31.4884 34.1879 26.4288 29.9528C16.6454 21.7638 5.08392 38.7215 12.2064 40.524C17.3091 41.8153 32.3904 38.7477 30.1773 41.1661C24.1743 47.726 20.3023 53.1342 22.1139 63.2143C23.2473 69.5204 31.3971 63.5001 33.2346 60.9726C35.5101 57.8426 37.2147 44.7657 39.027 48.0443C39.3418 48.6137 41.044 56.3175 44.7516 59.7849C47.8366 62.6699 58.8891 65.004 57.0099 56.6617C56.1399 52.7994 45.2854 45.7671 52.041 44.6927C59.4695 43.5113 70.1873 28.5236 59.4819 29.5639Z" stroke="#4B5BA2" stroke-width="20" stroke-linecap="round"/>
</svg>
