<svg width="308" height="281" viewBox="0 0 308 281" fill="none" xmlns="http://www.w3.org/2000/svg">
<path d="M271.405 102.086C253.309 103.619 192.605 147.551 200.194 127.718C210.279 101.359 228.51 50.6182 200.33 29.4584C173.554 9.35351 152.474 71.5187 152.474 89.3832C140.18 60.0328 88.1442 -6.58694 50.3939 18.5603C23.1681 36.6966 125.217 123.141 98.795 103.857C47.704 66.5674 -12.6729 143.785 24.5225 151.993C51.1696 157.873 129.928 143.905 118.371 154.917C87.0215 184.788 66.8007 209.415 76.2616 255.315C82.1803 284.03 124.74 256.617 134.336 245.107C146.219 230.855 155.121 171.308 164.586 186.238C166.229 188.83 175.119 223.91 194.481 239.699C210.591 252.836 268.31 263.465 258.496 225.478C253.953 207.89 197.268 175.868 232.547 170.976C271.34 165.596 327.311 97.3486 271.405 102.086Z" stroke="#4B5BA2" stroke-width="25" stroke-linecap="round"/>
</svg>
