<svg width="238" height="382" viewBox="0 0 238 382" fill="none" xmlns="http://www.w3.org/2000/svg">
<path d="M213.476 251.876C202.306 259.022 194.11 269.628 184.126 278.153C176.475 284.686 167.678 289.926 161.029 297.65C160.753 301.029 160.42 306.106 160.351 312.304C160.282 318.423 160.519 321.221 160.652 326.995C160.967 340.867 159.962 340.737 160.292 350.461C160.832 366.24 161.236 368.791 160.642 373.687C159.627 382.041 144.765 383.95 139.912 377.818L137.136 328.039C135.52 316.84 135.963 304.712 134.424 293.584C133.653 288.019 124.41 287.406 119.781 285.85C115.445 284.392 111.174 282.579 106.826 281.216C82.0359 273.456 56.5885 267.645 31.9762 259.306L30.7593 333.199C30.0399 333.908 26.7266 337.02 21.6691 337.039C14.5621 337.064 10.6354 330.96 10.4038 330.587C9.89141 324.578 9.18933 315.801 8.50449 305.17C7.50925 289.742 7.0141 282.028 6.886 273.892C6.47461 247.757 5.32418 220.044 4.21316 209.681C3.90277 206.799 1.79652 204.356 0.941704 201.258C-0.24075 196.975 -0.743294 193.755 2.08967 190.059C10.8029 178.694 41.6847 162.908 55.2706 156.421C64.8312 151.858 74.6308 147.8 84.5684 144.149L84.8048 89.1886L85.9159 76.4949C84.8837 62.9191 87.1279 49.5735 88.0246 36.1349C88.6996 26.0068 88.2808 14.9133 89.6775 4.87355C90.7418 -2.77208 96.3289 0.710109 101.174 1.31294C133.879 5.3857 165.18 9.89466 197.485 16.489C207.169 18.4666 217.851 20.601 227.244 23.5245C229.739 24.3013 236.065 26.1318 237.112 28.5725C237.507 29.4915 237.975 33.8093 237.994 35.0174C238.1 41.847 236.694 49.4608 236.423 56.2806C235.415 81.7366 235.201 107.308 234.287 132.703C233.462 155.593 231.417 179.01 232.168 201.721C233.252 234.492 235.144 267.101 236.947 299.867C235.937 306.109 222.147 307.937 218.026 303.879L213.483 251.869L213.476 251.876ZM216.148 78.8621C216.649 70.3196 217.4 61.4487 215.631 53.1121C180.217 44.8146 144.275 38.779 108.314 33.2261L107.269 56.0208C121.328 58.6502 135.478 60.3583 149.52 63.1077C171.91 67.4917 194.142 72.9686 216.148 78.8621ZM212.288 112.424C211.305 111.454 193.564 106.864 190.639 106.083C162.832 98.6428 134.507 92.5067 106.175 87.3557L106.705 139.9C118.943 140.052 131.11 140.976 143.112 143.247C165.985 147.577 187.656 155.965 210.273 161.126C211.975 150.662 211.461 140.052 211.857 129.527C211.966 126.662 213.798 113.919 212.288 112.424ZM161.164 274.166C162.546 274.326 163.613 273.321 164.616 272.556C174.679 264.879 184.153 255.689 193.98 247.615C200.143 242.55 205.957 237.095 212.707 232.76L212.944 216.319C195.327 229.368 178.635 243.77 160.206 255.697L161.164 274.169V274.166ZM29.8306 227.462V238.342C29.8306 238.666 30.545 239.727 31.0401 239.834C57.3054 247.926 83.0558 257.517 109.378 265.408C113.186 266.55 117.17 267.077 120.995 268.189C124.343 269.165 127.854 271.088 131.022 272.027C131.423 272.147 131.615 272.145 131.706 272.059C131.923 271.855 131.827 271.383 131.802 271.258C131.677 270.633 131.677 268.934 132.088 264.648V257.691L30.7248 228.54L29.833 227.464L29.8306 227.462Z" fill="#F4EDE3"/>
</svg>
